<?xml version="1.0" standalone="no"?>
<!DOCTYPE svg PUBLIC "-//W3C//DTD SVG 20010904//EN"
 "http://www.w3.org/TR/2001/REC-SVG-20010904/DTD/svg10.dtd">
<svg version="1.0" xmlns="http://www.w3.org/2000/svg"
 width="148.000000pt" height="130.000000pt" viewBox="0 0 148.000000 130.000000"
 preserveAspectRatio="xMidYMid meet">

<g transform="translate(0.000000,130.000000) scale(0.100000,-0.100000)"
fill="#000000" stroke="none">
<path d="M952 967 c-84 -31 -142 -118 -128 -192 11 -54 59 -98 172 -154 122
-62 145 -84 152 -149 4 -41 0 -52 -23 -80 -30 -36 -91 -57 -138 -47 -60 13
-95 43 -115 98 -11 29 -27 53 -36 55 -14 3 -16 -9 -16 -81 l0 -85 71 -17 c178
-44 324 23 337 155 2 27 2 60 -2 74 -12 49 -67 97 -170 147 -118 58 -156 93
-156 145 0 28 8 44 34 70 29 29 41 34 81 34 67 0 110 -24 135 -74 11 -23 20
-48 20 -54 0 -7 7 -12 15 -12 13 0 15 13 13 77 l-3 78 -50 11 c-65 16 -151 16
-193 1z"/>
<path d="M180 956 c0 -9 15 -17 40 -21 73 -12 72 -6 68 -302 -3 -291 0 -276
-70 -288 -23 -4 -38 -12 -38 -21 0 -12 27 -14 155 -11 95 1 155 6 155 12 0 6
-12 13 -27 16 -16 4 -40 10 -55 13 l-28 6 0 134 0 133 63 7 c102 10 146 -15
147 -81 0 -14 6 -23 15 -23 13 0 15 21 15 125 0 100 -3 125 -14 125 -8 0 -17
-15 -20 -35 -11 -57 -27 -65 -122 -65 l-84 0 0 120 0 120 119 0 c151 0 166 -5
184 -67 9 -29 21 -49 31 -51 13 -3 16 6 16 51 0 30 -3 69 -6 86 l-6 31 -269 0
c-225 0 -269 -2 -269 -14z"/>
</g>
</svg>
